<?xml version="1.0" encoding="UTF-8"?>
<svg width="1600px" height="759px" viewBox="0 0 1600 759" version="1.1" xmlns="http://www.w3.org/2000/svg" xmlns:xlink="http://www.w3.org/1999/xlink">
    <!-- Generator: Sketch 48 (47235) - http://www.bohemiancoding.com/sketch -->
    <title>Talksearch bg</title>
    <desc>Created with Sketch.</desc>
    <defs>
        <linearGradient x1="50%" y1="100%" x2="50%" y2="-103.078776%" id="linearGradient-1">
            <stop stop-color="#23122E" offset="1%"></stop>
            <stop stop-color="#493DAC" offset="46%"></stop>
            <stop stop-color="#3479ED" offset="100%"></stop>
        </linearGradient>
        <path d="M1440.19099,30.0399904 C1414.82449,13.759576 1395.29227,-5.8189352 1343.97732,9.90479403 C1297.07912,26.710383 1240.79531,107.58728 1172.45496,161.365165 C1106.26329,218.388629 1028.02999,248.260564 987.040698,239.091014 C965.285187,231.948639 968.732048,215.983329 988.189652,192.192917 C1006.9161,168.255457 1041.66822,136.471886 1065.78133,94.5104312 C1083.69961,64.4416306 1094.54995,32.5213073 1097.90726,1.25175908e-14 L972.387809,1.25175908e-14 C971.522364,0.955817875 970.671839,1.92213924 969.761629,2.85695013 C921.057933,55.5529752 824.76965,75.1524934 800.193979,56.7188629 C787.406274,47.6228379 798.970418,27.0569983 815.025926,0 L0,0 L0,436 C781.706271,-78.6711636 419.203939,536.413394 1600,356.635606 L1600,11.5538424 C1498.96669,57.9162611 1466.63185,45.6271742 1440.19099,30.0399904 Z" id="path-2"></path>
        <filter x="-1.0%" y="-3.8%" width="102.1%" height="107.6%" filterUnits="objectBoundingBox" id="filter-3">
            <feGaussianBlur stdDeviation="15.5" in="SourceAlpha" result="shadowBlurInner1"></feGaussianBlur>
            <feOffset dx="0" dy="2" in="shadowBlurInner1" result="shadowOffsetInner1"></feOffset>
            <feComposite in="shadowOffsetInner1" in2="SourceAlpha" operator="arithmetic" k2="-1" k3="1" result="shadowInnerInner1"></feComposite>
            <feColorMatrix values="0 0 0 0 1   0 0 0 0 1   0 0 0 0 1  0 0 0 0.05 0" type="matrix" in="shadowInnerInner1"></feColorMatrix>
        </filter>
        <linearGradient x1="50%" y1="100%" x2="50%" y2="-60.8994709%" id="linearGradient-4">
            <stop stop-color="#2E1642" offset="1%"></stop>
            <stop stop-color="#331C54" offset="9%"></stop>
            <stop stop-color="#372060" offset="16%"></stop>
            <stop stop-color="#412C7F" offset="29%"></stop>
            <stop stop-color="#503FB1" offset="46%"></stop>
            <stop stop-color="#5140B3" offset="46%"></stop>
            <stop stop-color="#427CEF" offset="100%"></stop>
            <stop stop-color="#427CEF" offset="100%"></stop>
        </linearGradient>
        <path d="M1417.77894,103.255357 C1387.29436,91.3303571 1363.65875,79.247619 1307.12127,95.7049603 C1255.00056,112.824802 1193.10628,169.768254 1128.34707,210.170238 C1064.33394,252.097024 997.47081,277.471825 952.691461,266.798214 C930.040661,259.899802 926.847465,243.936706 940.336479,223.409722 C953.124184,202.682937 982.594099,177.392262 1009.37815,147.232738 C1036.3711,117.346627 1060.6931,82.6021825 1067.79572,49.1827381 C1072.3617,30.9797619 1071.57086,13.1869048 1067.45253,0 L1006.14019,0 C1005.14045,0.87281746 1004.11087,1.75615079 1003.06636,2.65 C980.33463,23.2878229 953.103001,41.2547144 922.385944,55.8813492 C855.627262,86.5035714 769.76909,106.494246 744.909912,88.8065476 C722.050211,73.5059524 762.38296,42.7680556 793.180886,0.010515873 L0,0.010515873 L0,477 C731.74917,-18.634127 449.912336,539.611508 1600,386.994643 L1600,80.9827381 C1487.82035,124.802381 1449.38262,114.107738 1417.77894,103.255357 Z" id="path-5"></path>
        <filter x="-1.0%" y="-3.5%" width="102.1%" height="106.9%" filterUnits="objectBoundingBox" id="filter-6">
            <feGaussianBlur stdDeviation="15.5" in="SourceAlpha" result="shadowBlurInner1"></feGaussianBlur>
            <feOffset dx="0" dy="2" in="shadowBlurInner1" result="shadowOffsetInner1"></feOffset>
            <feComposite in="shadowOffsetInner1" in2="SourceAlpha" operator="arithmetic" k2="-1" k3="1" result="shadowInnerInner1"></feComposite>
            <feColorMatrix values="0 0 0 0 1   0 0 0 0 1   0 0 0 0 1  0 0 0 0.05 0" type="matrix" in="shadowInnerInner1"></feColorMatrix>
        </filter>
        <linearGradient x1="50%" y1="100%" x2="50%" y2="-34.4903268%" id="linearGradient-7">
            <stop stop-color="#391A57" offset="1%"></stop>
            <stop stop-color="#3E1F66" offset="9%"></stop>
            <stop stop-color="#422472" offset="17%"></stop>
            <stop stop-color="#4C3191" offset="31%"></stop>
            <stop stop-color="#5942B9" offset="46%"></stop>
            <stop stop-color="#507FF2" offset="100%"></stop>
            <stop stop-color="#507FF2" offset="100%"></stop>
        </linearGradient>
        <path d="M1396.29201,169.874817 C1359.74932,160.143716 1329.83176,152.268656 1266.04245,166.823362 C1146.37222,198.281662 1021.79282,318.97667 925.415004,293.831003 C901.540642,287.17233 891.796919,271.202 897.586451,252.463339 C902.749282,233.535929 923.490133,211.819216 946.40952,188.665908 C969.328907,165.5126 994.411907,141.027556 1007.33391,117.937165 C1020.76323,95.2033003 1021.97187,73.8955454 1008.73652,65.6220127 C994.516358,56.0796618 975.998806,60.8403512 950.020517,68.5371484 C924.415265,76.5590148 891.379117,87.5169891 856.716529,97.7828808 C786.361771,116.888555 715.216175,140.10478 689.372179,123.935214 C674.689447,115.630223 685.373223,94.1651764 706.994442,69.5333279 C724.900213,48.4562673 750.550229,25.1666396 769.948148,0 L480.158168,0 C446.674376,21.7167127 412.53404,39.4067631 381.139255,47.1874492 C307.606222,63.6715981 268.85515,57.3275077 224.986011,47.5544627 C179.729175,39.186555 129.354273,27.4001788 0,65.5590961 L0,516 C685.164323,50.8051536 493.139852,542.708096 1600,415.710941 L1600,149.793936 C1478.4795,188.676394 1434.07319,178.358072 1396.29201,169.874817 Z" id="path-8"></path>
        <filter x="-1.0%" y="-3.2%" width="102.1%" height="106.4%" filterUnits="objectBoundingBox" id="filter-9">
            <feGaussianBlur stdDeviation="15.5" in="SourceAlpha" result="shadowBlurInner1"></feGaussianBlur>
            <feOffset dx="0" dy="2" in="shadowBlurInner1" result="shadowOffsetInner1"></feOffset>
            <feComposite in="shadowOffsetInner1" in2="SourceAlpha" operator="arithmetic" k2="-1" k3="1" result="shadowInnerInner1"></feComposite>
            <feColorMatrix values="0 0 0 0 1   0 0 0 0 1   0 0 0 0 1  0 0 0 0.05 0" type="matrix" in="shadowInnerInner1"></feColorMatrix>
        </filter>
        <linearGradient x1="50.0037304%" y1="100%" x2="50.0037304%" y2="-17.1491575%" id="linearGradient-10">
            <stop stop-color="#441E6B" offset="1%"></stop>
            <stop stop-color="#482278" offset="9%"></stop>
            <stop stop-color="#4C2884" offset="18%"></stop>
            <stop stop-color="#5737A3" offset="34%"></stop>
            <stop stop-color="#6145C0" offset="46%"></stop>
            <stop stop-color="#5E82F4" offset="100%"></stop>
            <stop stop-color="#5E82F4" offset="100%"></stop>
        </linearGradient>
        <path d="M1378.55038,232.97041 C1335.83019,223.774209 1298.61603,217.48594 1226.94819,228.519281 C1159.24945,239.416148 1102.57768,266.563836 1053.02346,291.034547 C1002.96191,315.011855 960.047749,336.312187 908.016563,324.302537 C882.650054,317.930284 866.952662,302.099382 864.341403,284.189887 C861.222815,266.08093 871.205282,245.893381 885.902936,226.115251 C915.880181,187.178371 960.510314,146.519827 933.36815,125.849372 C910.374156,108.002865 845.450815,118.868239 784.421979,137.061178 C722.64707,154.309303 664.766665,178.8535 638.877905,166.53941 C624.67266,160.041181 628.686537,137.796035 645.458276,113.104866 C661.737606,87.9937804 690.804641,60.4156772 715.201253,33.6984055 C725.38155,22.8316273 734.711396,11.5821007 743.149177,0 L521.818928,0 C460.491663,45.4351087 398.17958,99.9404425 343.492371,118.133382 C277.076883,139.129274 243.145447,135.790927 204.424218,130.300501 C164.360055,126.174809 119.476256,119.907535 0,166.833352 L0,557 C642.981311,130.468468 549.811616,550.701233 1600,446.047212 L1600,219.134117 C1472.21248,251.646255 1422.62842,240.854367 1378.55038,232.97041 Z" id="path-11"></path>
        <filter x="-1.0%" y="-3.0%" width="102.1%" height="105.9%" filterUnits="objectBoundingBox" id="filter-12">
            <feGaussianBlur stdDeviation="15.5" in="SourceAlpha" result="shadowBlurInner1"></feGaussianBlur>
            <feOffset dx="0" dy="2" in="shadowBlurInner1" result="shadowOffsetInner1"></feOffset>
            <feComposite in="shadowOffsetInner1" in2="SourceAlpha" operator="arithmetic" k2="-1" k3="1" result="shadowInnerInner1"></feComposite>
            <feColorMatrix values="0 0 0 0 1   0 0 0 0 1   0 0 0 0 1  0 0 0 0.05 0" type="matrix" in="shadowInnerInner1"></feColorMatrix>
        </filter>
        <linearGradient x1="50%" y1="100%" x2="50%" y2="-4.16117525%" id="linearGradient-13">
            <stop stop-color="#502280" offset="1%"></stop>
            <stop stop-color="#53268A" offset="9%"></stop>
            <stop stop-color="#572C96" offset="19%"></stop>
            <stop stop-color="#633EB5" offset="38%"></stop>
            <stop stop-color="#6947C6" offset="46%"></stop>
            <stop stop-color="#6B85F6" offset="100%"></stop>
            <stop stop-color="#6B85F6" offset="100%"></stop>
        </linearGradient>
        <path d="M1367.13545,293.385735 C1318.96893,283.702725 1274.54769,277.20892 1195.70261,283.944014 C1120.39393,290.269967 1071.36196,309.478623 1031.07397,329.851758 C990.204051,349.312194 958.107957,369.874163 903.03279,358.30281 C845.585108,344.727714 827.365986,301.117455 836.676987,264.619959 C842.645578,226.653751 876.293505,195.810797 846.808669,173.874532 C821.546611,154.277716 764.427202,161.285571 716.842616,180.976804 C667.601746,199.031472 627.865856,229.7905 598.500392,219.425589 C583.713209,214.662766 580.594621,192.254415 589.845936,166.971585 C598.515313,141.269123 619.435222,112.6712 640.683404,86.6120512 C670.37714,52.0868259 695.967471,20.9816016 695.340769,0 L569.851158,0 C544.066848,13.2603722 517.103742,31.1996415 490.647965,52.3071327 C423.889283,103.135062 360.204424,173.601771 304.741299,197.81454 C245.055396,221.943381 215.003544,220.254362 180.997501,217.86246 C145.752975,216.750435 106.509494,214.893563 0,267.840635 L0,597 C606.199873,220.736939 620.822919,560.985081 1600,475.589963 L1600,288.119353 C1470.06379,313.454637 1416.73444,301.820338 1367.13545,293.385735 Z" id="path-14"></path>
        <filter x="-1.0%" y="-2.8%" width="102.1%" height="105.5%" filterUnits="objectBoundingBox" id="filter-15">
            <feGaussianBlur stdDeviation="15.5" in="SourceAlpha" result="shadowBlurInner1"></feGaussianBlur>
            <feOffset dx="0" dy="2" in="shadowBlurInner1" result="shadowOffsetInner1"></feOffset>
            <feComposite in="shadowOffsetInner1" in2="SourceAlpha" operator="arithmetic" k2="-1" k3="1" result="shadowInnerInner1"></feComposite>
            <feColorMatrix values="0 0 0 0 1   0 0 0 0 1   0 0 0 0 1  0 0 0 0.05 0" type="matrix" in="shadowInnerInner1"></feColorMatrix>
        </filter>
        <linearGradient x1="49.9981349%" y1="100%" x2="49.9981349%" y2="0.00141967576%" id="linearGradient-16">
            <stop stop-color="#5B2694" offset="1%"></stop>
            <stop stop-color="#5D299B" offset="9%"></stop>
            <stop stop-color="#6231A7" offset="21%"></stop>
            <stop stop-color="#6E45C6" offset="42%"></stop>
            <stop stop-color="#714ACD" offset="46%"></stop>
            <stop stop-color="#7988F8" offset="100%"></stop>
            <stop stop-color="#7988F8" offset="100%"></stop>
        </linearGradient>
        <path d="M0,369.153173 C92.3157266,313.925356 126.395106,312.885106 157.549985,312.517341 C187.645479,313.231856 214.816473,314.618856 269.173381,289.400675 C321.157863,265.002084 369.456879,191.974434 427.11131,137.566208 C482.855864,81.3927096 547.970755,43.8491423 589.346464,49.575771 C634.109221,58.8959905 593.225903,97.5638684 570.068636,153.453663 C543.807819,206.60098 535.302895,277.001735 573.54521,286.68972 C607.162041,294.391773 631.393614,259.25444 665.517756,237.724418 C697.911071,214.492169 740.196956,204.856722 769.829902,224.06457 C801.79051,244.417744 792.643987,274.217228 807.31125,310.689023 C819.247986,345.731787 854.968666,387.446862 913.249776,398.668952 C970.725157,408.903331 993.897344,388.938937 1025.84303,372.189862 C1057.32617,354.432059 1097.56789,339.889575 1178.58848,337.893136 C1262.56341,335.287257 1313.01104,343.062863 1364.99552,353.654499 C1418.42734,363.205885 1473.41092,375.625839 1600,357.33215 L1600,505.846223 C707.072516,576.15241 575.81319,322.709689 0,638 L0,369.153173 Z" id="path-17"></path>
        <filter x="-1.0%" y="-2.8%" width="102.1%" height="105.6%" filterUnits="objectBoundingBox" id="filter-18">
            <feGaussianBlur stdDeviation="15.5" in="SourceAlpha" result="shadowBlurInner1"></feGaussianBlur>
            <feOffset dx="0" dy="2" in="shadowBlurInner1" result="shadowOffsetInner1"></feOffset>
            <feComposite in="shadowOffsetInner1" in2="SourceAlpha" operator="arithmetic" k2="-1" k3="1" result="shadowInnerInner1"></feComposite>
            <feColorMatrix values="0 0 0 0 1   0 0 0 0 1   0 0 0 0 1  0 0 0 0.05 0" type="matrix" in="shadowInnerInner1"></feColorMatrix>
        </filter>
        <linearGradient x1="50%" y1="100%" x2="50%" y2="0.000584622279%" id="linearGradient-19">
            <stop stop-color="#662AA8" offset="1%"></stop>
            <stop stop-color="#672CAD" offset="9%"></stop>
            <stop stop-color="#6D36B9" offset="24%"></stop>
            <stop stop-color="#794CD3" offset="46%"></stop>
            <stop stop-color="#878BFB" offset="100%"></stop>
            <stop stop-color="#878BFB" offset="100%"></stop>
        </linearGradient>
        <path d="M0,470.194681 C78.5422931,417.833955 108.426241,415.807969 136.640029,415.72399 C164.018736,416.479798 189.727282,419.177614 240.771571,395.506115 C290.801833,373.04181 325.66644,301.838361 369.895876,244.900796 C412.141996,186.609073 463.767859,142.572737 501.659632,143.003128 C540.804025,145.721938 517.645456,187.154935 516.049856,243.483655 C511.099023,297.534452 527.72607,366.459979 569.0029,371.551188 C607.77449,375.939076 621.195425,339.838728 641.744367,315.075505 C660.98104,288.979121 687.226424,274.23036 722.881374,290.648198 C759.848594,307.538416 775.073899,336.930965 806.389413,370.081561 C836.034767,402.287396 881.800155,438.261776 940.703147,446.512685 C999.695611,454.343699 1016.75511,435.532468 1041.27068,420.636744 C1065.5924,404.890736 1097.40002,392.965759 1180.75893,394.109969 C1266.47397,394.592847 1320.59016,403.914484 1373.9011,415.335588 C1428.58395,425.927403 1482.47646,438.597691 1599,426.462768 L1599,535.425144 C809.058688,595.008039 552.554799,436.70817 0,678 L0,470.194681 Z" id="path-20"></path>
        <filter x="-1.0%" y="-3.1%" width="102.1%" height="106.2%" filterUnits="objectBoundingBox" id="filter-21">
            <feGaussianBlur stdDeviation="15.5" in="SourceAlpha" result="shadowBlurInner1"></feGaussianBlur>
            <feOffset dx="0" dy="2" in="shadowBlurInner1" result="shadowOffsetInner1"></feOffset>
            <feComposite in="shadowOffsetInner1" in2="SourceAlpha" operator="arithmetic" k2="-1" k3="1" result="shadowInnerInner1"></feComposite>
            <feColorMatrix values="0 0 0 0 1   0 0 0 0 1   0 0 0 0 1  0 0 0 0.05 0" type="matrix" in="shadowInnerInner1"></feColorMatrix>
        </filter>
        <linearGradient x1="49.9958037%" y1="100%" x2="49.9958037%" y2="0.0153318471%" id="linearGradient-22">
            <stop stop-color="#712EBD" offset="1%"></stop>
            <stop stop-color="#722FBF" offset="9%"></stop>
            <stop stop-color="#773BC9" offset="26%"></stop>
            <stop stop-color="#814FDA" offset="46%"></stop>
            <stop stop-color="#958EFD" offset="100%"></stop>
            <stop stop-color="#958EFD" offset="100%"></stop>
        </linearGradient>
        <path d="M0,572.01867 C67.0216436,528.677753 94.3107323,527.943161 121.167134,530.188913 C147.456568,532.948879 173.387916,538.741661 224.116676,519.694744 C274.711154,501.802186 300.090454,437.913686 331.21404,382.452003 C360.920205,326.192764 396.385576,278.360342 434.357545,274.131192 C472.523476,271.329249 473.508211,313.778162 492.859741,366.112582 C509.600231,417.009301 544.692597,477.781034 591.034811,478.473649 C636.183407,479.061322 645.642829,446.644834 658.175816,421.626736 C670.111995,395.832069 685.032218,377.43579 727.942781,388.307749 C771.688876,399.389592 804.185123,424.250278 844.320524,449.656661 C883.799435,474.716736 930.85782,500.312014 990.046346,504.740553 C1049.59296,508.938221 1064.14018,492.409905 1084.1482,479.334171 C1104.14129,465.618292 1129.5952,455.396971 1210.73137,457.579758 C1293.58337,459.164378 1347.99743,469.585088 1399.35284,481.055214 C1451.82726,491.979644 1501.27288,503.953491 1600,496.229782 L1600,565.942547 C929.037552,620.081964 538.351502,564.347433 0,719 L0,572.01867 Z" id="path-23"></path>
        <filter x="-1.0%" y="-3.7%" width="102.1%" height="107.4%" filterUnits="objectBoundingBox" id="filter-24">
            <feGaussianBlur stdDeviation="15.5" in="SourceAlpha" result="shadowBlurInner1"></feGaussianBlur>
            <feOffset dx="0" dy="2" in="shadowBlurInner1" result="shadowOffsetInner1"></feOffset>
            <feComposite in="shadowOffsetInner1" in2="SourceAlpha" operator="arithmetic" k2="-1" k3="1" result="shadowInnerInner1"></feComposite>
            <feColorMatrix values="0 0 0 0 1   0 0 0 0 1   0 0 0 0 1  0 0 0 0.05 0" type="matrix" in="shadowInnerInner1"></feColorMatrix>
        </filter>
        <linearGradient x1="50.0023316%" y1="100.01393%" x2="50.0023316%" y2="0.00201224541%" id="linearGradient-25">
            <stop stop-color="#7C32D1" offset="9%"></stop>
            <stop stop-color="#813ED7" offset="26%"></stop>
            <stop stop-color="#8E5DE6" offset="57%"></stop>
            <stop stop-color="#A28FFE" offset="99%"></stop>
            <stop stop-color="#A391FF" offset="100%"></stop>
        </linearGradient>
        <path d="M0,672.931351 C116.75107,619.367741 112.334107,684.755177 222.892476,663.298287 C277.433013,653.287866 299.129851,603.550229 322.00554,556.789512 C344.254498,509.619993 367.712151,465.469323 411.344581,458.66643 C454.872555,452.61825 478.225754,488.666244 512.815347,529.106245 C546.047023,568.938284 590.574783,613.162329 643.906625,609.472624 C749.048245,600.552344 701.849417,523.456385 804.349813,529.808547 C907.790306,534.661767 945.185268,574.881643 1061.92142,573.728611 C1120.72969,573.068237 1137.32315,560.437288 1156.91596,550.059994 C1176.58338,539.357754 1199.28001,530.919651 1272.13005,531.076883 C1346.03956,530.888205 1396.17806,541.17116 1441.36239,551.359776 C1487.26299,561.328268 1528.20943,571.202421 1600,565.311472 L1600,595.62575 L0,759 L0,672.931351 Z" id="path-26"></path>
        <filter x="-1.0%" y="-5.5%" width="102.1%" height="111.0%" filterUnits="objectBoundingBox" id="filter-27">
            <feGaussianBlur stdDeviation="15.5" in="SourceAlpha" result="shadowBlurInner1"></feGaussianBlur>
            <feOffset dx="0" dy="2" in="shadowBlurInner1" result="shadowOffsetInner1"></feOffset>
            <feComposite in="shadowOffsetInner1" in2="SourceAlpha" operator="arithmetic" k2="-1" k3="1" result="shadowInnerInner1"></feComposite>
            <feColorMatrix values="0 0 0 0 1   0 0 0 0 1   0 0 0 0 1  0 0 0 0.05 0" type="matrix" in="shadowInnerInner1"></feColorMatrix>
        </filter>
    </defs>
    <g id="Blog-post-page-V3-Copy-3" stroke="none" stroke-width="1" fill="none" fill-rule="evenodd" transform="translate(0.000000, -55.000000)">
        <g id="Talksearch-bg" transform="translate(0.000000, 55.000000)">
            <polygon id="Shape" fill="#2D2A4F" fill-rule="nonzero" points="1600 565.491951 0 759 0 0 1600 0"></polygon>
            <g id="Shape" fill-rule="nonzero">
                <use fill="url(#linearGradient-1)" fill-rule="evenodd" xlink:href="#path-2"></use>
                <use fill="black" fill-opacity="1" filter="url(#filter-3)" xlink:href="#path-2"></use>
            </g>
            <g id="Shape" fill-rule="nonzero">
                <use fill="url(#linearGradient-4)" fill-rule="evenodd" xlink:href="#path-5"></use>
                <use fill="black" fill-opacity="1" filter="url(#filter-6)" xlink:href="#path-5"></use>
            </g>
            <path d="M744.719573,89.3301552 C769.583524,107.122141 855.458179,87.0136005 922.229677,56.2108283 C952.952632,41.4979541 980.189488,23.425129 1002.92559,2.66562452 C1003.97029,1.76650514 1005.00007,0.877963633 1006,0 L792.999814,0 C762.195976,43.0096401 721.855484,73.928769 744.719573,89.3301552 Z" id="Shape"></path>
            <g id="Shape" fill-rule="nonzero">
                <use fill="url(#linearGradient-7)" fill-rule="evenodd" xlink:href="#path-8"></use>
                <use fill="black" fill-opacity="1" filter="url(#filter-9)" xlink:href="#path-8"></use>
            </g>
            <g id="Shape" fill-rule="nonzero">
                <use fill="url(#linearGradient-10)" fill-rule="evenodd" xlink:href="#path-11"></use>
                <use fill="black" fill-opacity="1" filter="url(#filter-12)" xlink:href="#path-11"></use>
            </g>
            <g id="Shape" fill-rule="nonzero">
                <use fill="url(#linearGradient-13)" fill-rule="evenodd" xlink:href="#path-14"></use>
                <use fill="black" fill-opacity="1" filter="url(#filter-15)" xlink:href="#path-14"></use>
            </g>
            <g id="Shape" fill-rule="nonzero">
                <use fill="url(#linearGradient-16)" fill-rule="evenodd" xlink:href="#path-17"></use>
                <use fill="black" fill-opacity="1" filter="url(#filter-18)" xlink:href="#path-17"></use>
            </g>
            <g id="Shape" fill-rule="nonzero">
                <use fill="url(#linearGradient-19)" fill-rule="evenodd" xlink:href="#path-20"></use>
                <use fill="black" fill-opacity="1" filter="url(#filter-21)" xlink:href="#path-20"></use>
            </g>
            <g id="Shape" fill-rule="nonzero">
                <use fill="url(#linearGradient-22)" fill-rule="evenodd" xlink:href="#path-23"></use>
                <use fill="black" fill-opacity="1" filter="url(#filter-24)" xlink:href="#path-23"></use>
            </g>
            <g id="Shape" fill-rule="nonzero">
                <use fill="url(#linearGradient-25)" fill-rule="evenodd" xlink:href="#path-26"></use>
                <use fill="black" fill-opacity="1" filter="url(#filter-27)" xlink:href="#path-26"></use>
            </g>
        </g>
    </g>
</svg>