<?xml version="1.0" encoding="UTF-8"?>
<svg width="400px" height="75px" viewBox="0 0 400 75" version="1.1" xmlns="http://www.w3.org/2000/svg" xmlns:xlink="http://www.w3.org/1999/xlink">
    <!-- Generator: Sketch 48 (47235) - http://www.bohemiancoding.com/sketch -->
    <title>Group</title>
    <desc>Created with Sketch.</desc>
    <defs>
        <linearGradient x1="0.258775404%" y1="49.8603321%" x2="100.254216%" y2="49.8615027%" id="linearGradient-1">
            <stop stop-color="#493DAC" offset="0%"></stop>
            <stop stop-color="#3F5ACC" offset="52.01%"></stop>
            <stop stop-color="#3479ED" offset="99.88%"></stop>
        </linearGradient>
        <linearGradient x1="50.0124611%" y1="99.9910491%" x2="50.0124611%" y2="0.0444933535%" id="linearGradient-2">
            <stop stop-color="#3479ED" offset="0%"></stop>
            <stop stop-color="#00ECB9" offset="98.74%"></stop>
        </linearGradient>
        <linearGradient x1="0.0103305139%" y1="50.0419146%" x2="100.004203%" y2="50.0419146%" id="linearGradient-3">
            <stop stop-color="#C5F49A" offset="0%"></stop>
            <stop stop-color="#00ECB9" offset="100%"></stop>
        </linearGradient>
    </defs>
    <g id="Blog-post-page-V3-Copy-3" stroke="none" stroke-width="1" fill="none" fill-rule="evenodd" transform="translate(-600.000000, -295.000000)">
        <g id="Group" transform="translate(600.000000, 295.000000)" fill-rule="nonzero">
            <path d="M105.325444,15.4073737 L136.68946,15.4073737 L136.68946,21.9503869 L124.743959,21.9503869 L124.743959,53.9827037 L117.327558,53.9827037 L117.327558,21.9503869 L105.382058,21.9503869 L105.382058,15.4073737 L105.325444,15.4073737 Z M164.48681,24.5106964 L164.48681,53.9827037 L157.353478,53.9827037 L157.353478,49.3172508 C155.258769,52.5034137 151.918558,54.3240783 147.559299,54.3240783 C139.180465,54.3240783 133.575704,48.1224397 133.575704,39.1898043 C133.575704,30.3140646 139.067237,24.2831133 147.276231,24.2262176 C151.748717,24.1693218 155.258769,25.9899863 157.353478,29.2330451 L157.353478,24.5106964 L164.48681,24.5106964 Z M157.353478,40.3846154 L157.353478,38.279472 C156.900568,33.5571234 153.673584,30.3140646 149.087871,30.3140646 C144.219088,30.3140646 140.822264,34.0691853 140.76565,39.3035958 C140.822264,44.5949021 144.162475,48.293127 149.087871,48.293127 C153.673584,48.293127 156.900568,45.106964 157.353478,40.3846154 Z M181.131252,47.7810651 C182.037072,47.7810651 182.942892,47.4396905 184.018553,46.8707328 L184.867759,52.9016841 C182.999505,53.8120164 181.131252,54.3240783 179.319612,54.3240783 C174.90374,54.3240783 171.337073,51.2517069 171.337073,45.0500683 L171.337073,13.0746472 L178.413792,13.0746472 L178.413792,44.4242148 C178.470406,46.7000455 179.546067,47.7810651 181.131252,47.7810651 Z M207.852941,53.9827037 L199.870402,41.0673646 L195.397916,45.7897132 L195.397916,53.9258079 L188.264584,53.9258079 L188.264584,13.0177515 L195.397916,13.0177515 L195.397916,36.7432863 L207.456644,24.5106964 L215.665638,24.5106964 L204.795798,35.8898498 L216.288389,53.9827037 L207.852941,53.9827037 Z M238.311137,22.5193446 C236.273042,21.8365954 234.404788,21.5521165 232.876217,21.5521165 C231.121191,21.5521165 229.705847,21.8934911 228.6868,22.5193446 C227.667752,23.2020938 227.158229,24.112426 227.158229,25.2503414 C227.158229,26.3313609 227.497911,27.1847975 228.23389,27.9244424 C228.969869,28.6640874 229.819075,29.2330451 230.894736,29.6882112 C231.970397,30.1433773 233.442355,30.6554392 235.310608,31.2243969 C237.914841,32.0209376 240.009549,32.7605826 241.707962,33.5571234 C243.34976,34.3536641 244.765104,35.4915794 245.953993,36.9708694 C247.142882,38.4501593 247.709019,40.4415112 247.709019,42.9449249 C247.709019,45.2776513 247.086268,47.325899 245.840765,49.0896677 C244.595263,50.8534365 242.840237,52.1620391 240.632301,53.0723714 C238.424364,53.9827037 235.876746,54.4378698 233.046058,54.4378698 C230.04553,54.4378698 227.101615,53.8689122 224.270927,52.7309968 C221.44024,51.5930815 218.949235,50.1137915 216.797913,48.2362312 L219.855055,41.9776969 C221.779923,43.7983614 223.987859,45.2207556 226.365636,46.2448794 C228.800027,47.2690032 231.007963,47.7810651 233.102672,47.7810651 C235.140767,47.7810651 236.782566,47.3827947 237.914841,46.586254 C239.103729,45.7897132 239.669867,44.7086937 239.669867,43.3431953 C239.669867,42.2621757 239.330184,41.3518434 238.594206,40.6121985 C237.858227,39.8725535 236.952407,39.3035958 235.876746,38.8484297 C234.801085,38.3932635 233.272513,37.9380974 231.40426,37.3691397 C228.800027,36.572599 226.705319,35.832954 225.06352,35.0933091 C223.421721,34.3536641 222.006378,33.2726445 220.817489,31.7364588 C219.6286,30.2571689 219.062463,28.265817 219.062463,25.8761948 C219.062463,23.6572599 219.6286,21.6659081 220.817489,20.0159308 C222.006378,18.3659536 223.70479,17.0573509 225.856112,16.1470187 C228.007435,15.2366864 230.555053,14.7815203 233.385741,14.7815203 C235.876746,14.7815203 238.311137,15.1228949 240.745528,15.8625398 C243.179919,16.6021848 245.331242,17.5694128 247.256109,18.8211197 L244.312194,25.2503414 C242.387327,24.112426 240.349232,23.145198 238.311137,22.5193446 Z M276.298962,28.3227128 C278.676739,30.9968138 279.809014,34.7519345 279.809014,39.6449704 C279.809014,40.6121985 279.809014,41.2949477 279.7524,41.8070096 L258.069335,41.8070096 C258.522245,43.9121529 259.541292,45.5621302 261.01325,46.7569413 C262.485207,47.9517524 264.296847,48.5207101 266.448169,48.5207101 C267.920127,48.5207101 269.392084,48.2362312 270.750814,47.6672736 C272.109544,47.0983159 273.298433,46.3017751 274.31748,45.2207556 L278.167215,49.260355 C276.695258,50.8534365 274.940232,52.1051434 272.845523,53.0154756 C270.750814,53.9258079 268.429651,54.3240783 265.825418,54.3240783 C262.82489,54.3240783 260.164043,53.6982249 257.899494,52.446518 C255.634944,51.1948111 253.823304,49.4310423 252.634415,47.1552117 C251.388913,44.879381 250.766161,42.3190715 250.766161,39.3604916 C250.766161,36.4019117 251.388913,33.7847064 252.634415,31.5088757 C253.879917,29.2330451 255.634944,27.4692763 257.956107,26.1606736 C260.220657,24.9089668 262.82489,24.2831133 265.712191,24.2831133 C270.411132,24.2831133 273.921184,25.591716 276.298962,28.3227128 Z M273.298433,36.9708694 C273.241819,34.8088302 272.50584,33.1019572 271.14711,31.7933546 C269.788381,30.4847519 267.976741,29.8588985 265.768804,29.8588985 C263.674096,29.8588985 261.91907,30.4847519 260.503726,31.7364588 C259.088382,32.9881657 258.239176,34.7519345 257.899494,36.9708694 L273.298433,36.9708694 Z M313.664035,24.5106964 L313.664035,53.9827037 L306.530703,53.9827037 L306.530703,49.3172508 C304.435994,52.5034137 301.095783,54.3240783 296.736524,54.3240783 C288.35769,54.3240783 282.752929,48.1224397 282.752929,39.1898043 C282.752929,30.3140646 288.244462,24.2831133 296.453456,24.2262176 C300.925942,24.1693218 304.435994,25.9899863 306.530703,29.2330451 L306.530703,24.5106964 L313.664035,24.5106964 Z M306.530703,40.3846154 L306.530703,38.279472 C306.077793,33.5571234 302.850809,30.3140646 298.265096,30.3140646 C293.396313,30.3140646 289.999488,34.0691853 289.942875,39.3035958 C289.999488,44.5949021 293.3397,48.293127 298.265096,48.293127 C302.850809,48.293127 306.077793,45.106964 306.530703,40.3846154 Z M332.006889,25.7624033 C333.705302,24.7382795 335.686783,24.2262176 337.951333,24.1693218 L337.951333,31.1106054 C334.89419,30.9399181 332.516413,31.6226673 330.704773,33.2157487 C328.893133,34.8088302 327.987313,36.9708694 327.987313,39.7018662 L327.987313,53.9258079 L320.853981,53.9258079 L320.853981,24.4538006 L327.987313,24.4538006 L327.987313,30.1433773 C328.949747,28.265817 330.308477,26.7865271 332.006889,25.7624033 Z M354.595774,30.5416477 C352.217997,30.5416477 350.29313,31.3381884 348.821172,32.9881657 C347.349215,34.5812472 346.613236,36.6863905 346.613236,39.2467 C346.613236,41.9208011 347.349215,44.0259445 348.821172,45.6190259 C350.29313,47.2121074 352.217997,48.0655439 354.595774,48.0655439 C358.105827,48.0655439 360.766673,46.9276286 362.521699,44.5949021 L366.937571,48.293127 C365.635455,50.2275831 363.880429,51.6499772 361.729107,52.7309968 C359.577784,53.7551206 357.086779,54.2671825 354.199478,54.2671825 C351.312177,54.2671825 348.764558,53.6413291 346.500009,52.3896222 C344.235459,51.1379153 342.480432,49.3741466 341.23493,47.0983159 C339.989428,44.8224852 339.366676,42.2621757 339.366676,39.3035958 C339.366676,36.3450159 339.989428,33.6709149 341.23493,31.3950842 C342.480432,29.1192535 344.235459,27.3554848 346.500009,26.1037779 C348.764558,24.852071 351.312177,24.2262176 354.256092,24.2262176 C356.916938,24.2262176 359.294715,24.6813837 361.389424,25.6486117 C363.484133,26.558944 365.182545,27.9244424 366.541275,29.6313154 L362.182017,33.7847064 C360.313763,31.6226673 357.766144,30.5416477 354.595774,30.5416477 Z M397.112699,27.298589 C399.037566,29.3468366 400,32.0778334 400,35.605371 L400,54.0395995 L392.810054,54.0395995 L392.810054,37.7105143 C392.810054,35.6622667 392.243917,34.0122895 391.055028,32.8174784 C389.866139,31.6226673 388.280954,31.0537096 386.299473,31.0537096 C383.921696,31.1106054 382.053442,31.9071461 380.638098,33.5002276 C379.222755,35.0933091 378.54339,37.0846609 378.54339,39.5880746 L378.54339,54.0964952 L371.410057,54.0964952 L371.410057,13.1884388 L378.54339,13.1884388 L378.54339,30.2002731 C380.581485,26.3313609 384.091537,24.3969049 389.13016,24.2831133 C392.526985,24.2262176 395.187831,25.2503414 397.112699,27.298589 Z" id="TalkSearch" fill="#FFFFFF"></path>
            <g id="Picto">
                <ellipse id="Oval" fill="#FFFFFF" cx="36.9974022" cy="36.9935408" rx="31.01169" ry="30.960748"></ellipse>
                <path d="M55.6956271,5.17909571 C43.8382162,-1.53665477 29.1304662,7.1710556 29.1304662,20.773296 L29.1304662,23.2774741 L72.5126281,48.3192556 C77.6432386,32.0990108 71.0304517,14.0006324 55.6956271,5.17909571 Z" id="Shape" fill="url(#linearGradient-1)"></path>
                <path d="M29.1304662,20.773296 L29.1304662,23.2774741 L34.0900563,26.066218 L34.0900563,21.9115588 C34.0900563,12.2932382 39.2206668,3.8700935 47.7716842,2.90257013 C38.1375379,2.50417815 29.1304662,10.1305389 29.1304662,20.773296 Z" id="Shape" fill="#353587" opacity="0.4"></path>
                <path d="M53.3013422,37.2211934 L72.5126281,48.3192556 C73.0826959,46.441122 73.5387502,44.5060753 73.8237841,42.5710285 L53.3013422,37.2211934 Z" id="Shape" fill="#353587" opacity="0.4"></path>
                <path d="M0.171020349,37.2211934 C0.285033915,50.8234338 15.1638043,59.1896653 26.9642084,52.3600885 L29.1304662,51.1079995 L29.1304662,20.6594697 C29.1304662,7.28488188 43.3251551,-1.30900221 55.0685525,4.7237906 C49.7669216,1.82122047 43.7242026,0.170739419 37.2824361,0.170739419 C16.7599942,0.170739419 0.171020349,16.7893762 0.171020349,37.2211934 Z" id="Shape" fill="url(#linearGradient-2)"></path>
                <path d="M26.9642084,52.3600885 L29.1304662,51.1079995 L29.1304662,44.1645964 L25.5390388,46.2703826 C17.1590417,51.1079995 7.23986145,52.132436 2.16625776,45.2459461 C6.61278684,53.7260039 17.7291095,57.7099237 26.9642084,52.3600885 Z" id="Shape" fill="#353587" opacity="0.2"></path>
                <path d="M89.5576562,58.3928813 L53.3013422,37.1642802 L26.9642084,52.4170017 C15.3918314,59.075839 0.798094963,51.1649126 0.171020349,37.9610642 C0.285033915,43.993857 1.88122384,50.0266498 5.13061048,55.6610506 C15.3918314,73.3610371 37.9665175,79.3369168 55.8096406,69.2063779 C57.4628374,68.2388545 59.2300476,66.9298523 60.7692308,65.6208501 C63.2775292,63.4581508 66.9259633,63.1735851 69.7763025,64.8809793 L81.6337134,71.8812955 C85.3961611,74.1009079 90.1847308,72.8488188 92.4079954,69.0925516 C94.5172464,65.3362844 93.2630971,60.6124938 89.5576562,58.3928813 Z" id="Shape" fill="url(#linearGradient-3)"></path>
            </g>
        </g>
    </g>
</svg>