<svg aria-hidden="true" class="logo" preserveAspectRatio="xMidYMid" role="img" viewBox="0 0 280 122" xmlns="http://www.w3.org/2000/svg">
  <path d="M60.9 95.6c-1 3.1-2.5 3.7-5.5 3.7-10.3 0-18.5-15-21.9-20.6-1.3-2.4-.1-2.5 1.6-4.2 8.6-7.4 17.4-21.1 17.4-29.9 0-5.7-2.8-9.6-7.1-9.6-6.4 0-4.6.5-3.7 3.6.9 3.2 1 4.1 1 6.4 0 8.2-9.8 18.3-16.7 24.3.5-1.6 1.1-3 1.6-4.1 4.1-9.4 11.4-27.8 11.6-37.5 0-2.7-1.2-3.8-3.3-4.8-3.3-1.7-3.8-1.9-6-2.9s-3.5.5-3.5 2c.2 1.8 1.1 4.3 0 9.1-2.7 12.2-19.2 63.7-19.4 69-.2 6 3.4 8.4 5 10.2 1.6 1.8 4 2 4.5-1.3.9-5.7 4.3-22.7 7.8-34.7.1.1.1.3.2.4 1.7 2.9 16.5 33.7 32.4 33.7 6.5 0 9.9-2.9 9.9-6.9 0-5.8-5.9-5.9-5.9-5.9zM58.8 46.3s2.8 1.3 4.1 1.7c1.3.4 1.8 0 2.2-1.1 3.7-9.2 0-12.1-.6-12.9-.6-.8-2.2-1.3-3.2 0s-2.3 5.6-3.1 7.8c-.8 2.3-1.1 3.5.6 4.5z" fill="#343434"></path>
  <path d="M100.7 53.2c-2.3-1.9-6.9-5.6-8.9-6.3-2-.8-2.9-.5-2.9-.5s-.2 4.4 5.5 9.4c-2.5 6.6-7.2 20.8-11.1 24.5-.6-6.7 4.4-19.5 5.1-21.8.6-2.3 1.4-3.7-.8-4.6-1.4-.6-4-1.6-4-1.6s-1.6-.9-2.2.9c-1.4 4.2-4.9 14.4-5.8 20.7-1.3 1.8-3.1 3.9-3.8 4.8-.6.7-2.3 1.1-2.3-1.1 0-2 6.3-17.5 7.3-20.6.9-3.1-1.2-3.4-1.2-3.4s-2-.9-4.3-1.8-3.1.7-3.1.7-11 20.6-13.4 25.7c-.7 1.4-2.8 1.3-2.3-.6C53 75.8 60 58.9 61 57c1-1.9 1-3.4 0-4-1-.6-2.9-1.3-3.9-1.5-1-.5-2.4-.9-3.5 1.9 0 0-9.7 22.4-10.2 26.8-.5 4.4 3.4 6.8 6.4 7.5 3 .7 4.6-1.8 4.6-1.8s4.4-7.7 8.6-15.5c-1.3 4.7-2.5 8.6-2.7 9.3-.6 1.9-.4 3.1.6 4.5s2.7 2.6 4.6 3.4c1.9.9 3.1-.1 4.4-1.6.9-1 3.5-4.9 5.5-7.9.3 4 2.2 6.6 5.1 8.5 3.8 2.5 6.4 1.1 8.5-1.8 2.1-2.9 9.9-16.2 13-27.6.5-1.7.9-2.4-1.3-4zM115.2 50.3c.6.3 1.6.4 2-.7 3.6-7.7 1.6-12.6 0-14.3-1.6-1.8-3.1-.8-3.9 0-.9.8-2.6 5.1-3.3 6.6s-.9 2.1 0 4.1c.8 2 5.2 4.3 5.2 4.3z" fill="#343434"></path>
  <path d="M144.3 36.6c-2.4 0-5 1.8-7.2 4.2.8-2.6.3-3.5-.6-4.4-1.1-1.1-5.9-2.4-7.1-3.1s-1.6.1-1.5 1.6c.1.8.7 1.5-.9 5.2-.5 1.2-2.5 6.3-5.1 13-.2.1-.3.1-.3.1s-11.3 20.1-13.7 25.1c-.7 1.4-2.8 1.3-2.3-.6s7.5-18.8 8.5-20.7c1-1.9.4-2.8-.5-3.4-1-.6-2.3-1.3-3.3-1.5-2.4-1-3 .1-4.1 2.5 0 0-9.1 21.3-9.6 25.6-.5 4.4 3.4 6.8 6.4 7.5 3 .7 4.6-1.8 4.6-1.8s2.3-4.1 5.2-9.3c-3.4 8.9-6.3 16.9-7.4 20.2-2.8 9.1-.9 12.2 3.5 14.9 4.3 2.7 4.6.3 5.3-5.6.8-6.9 2.7-14.6 5.2-22.4 3.6 3.3 10.1 6 13.4 2.7 4.7-4.2 21.4-33.1 21.4-42.5 0-5-6.3-7.3-9.9-7.3zm-.4 10.7c-1.3 7.2-10.4 25.7-15.8 30.8-2 2.1-2.7 2.3-3.9 1.7-1.2-.5-1.6-5-.3-8.8 0-.1 0-.2.1-.2.8-2.1 1.6-4.2 2.4-6.2 6-11.7 13.8-18.4 15.1-19.5 1.5-1.2 2.7-1.4 2.4 2.2zM240.5 94.7c-.1 2.4-1.4 5.5-7.3 5.5-3.6 0-6.5-.7-9.2-1.7 5.3-12.9 16.6-41.1 16.6-42.4 0-3.2-6.9-4.5-7.7-3s-11.3 27.5-16.1 27.5c-5.2 0 9-24.6 9-26.6s-6.4-3.3-6.4-3.3l-.9 1.3s-3.1 6.5-6 13.5h-.1S205.9 80 203.1 80c-3.5 0 6.2-20.1 12.1-31.6 8-.1 18.2-.2 23.7 0 3 .1 3.7-1.9 4.4-4.1.6-1.8 0-2.9-3-2.9h-21.5c.3-.6.5-.9.5-.9s1.4-2.4-.8-3.9-5.7-2.3-6.6-.5c0 0-1 2.1-2.6 5.4h-3.5c-4.4 0-5.4 1.2-6.5 4.3-.8 2.4 1.9 2.8 5.1 2.8h1.6c-3.6 7.8-8 17.6-10.4 24.5-2.1 3.9-4.2 7.1-5.3 7.1-3.2 0 5.1-16.4 6.7-20.3 1.6-4 1.1-5.5-1.1-6.6-2.5-1.1-4.8-2-6.6-2.7 1.2-2.8 1.9-5 1.9-6 0-3.3-2.4-4.6-5.4-4.6-5.7 0-9.9 2.6-9.9 6.4 0 3.8 3.5 6.7 6.9 8.6-3.9 8-9.8 20.3-9.8 20.3s-2.2 4.7-3.6 4.7c-.9 0-1.4-.7-1.4-1.6 0-2.1 7.8-19 9.1-22.4.7-1.7-1-2.1-1.6-2.3-1.1-.5-1.1-.5-3.2-1.5-1.1-.5-1.5-.4-2.2 1.2-.1.3-.6 1.4-1.4 3-1.4-1.6-4.4-4.5-7.8-4.5-6.8-.3-15.9 18-15.9 28.3 0 4.3 4 8.2 6.9 8.2 2.4 0 5.2-3.2 7.8-7.2.4 2.9 5.1 7.4 8.1 7.4 3.2 0 7.1-7.9 8.8-11.1.8-1.6 6.1-11.9 10.1-20.6 1.6.6 2.7 1 2.7 1 0 .1-8.5 18-8.5 22.8 0 3.3 4.6 7.5 7.1 7.5 1.6 0 3.8-2.5 6.2-6 1.2 2.4 4.6 5.9 6.2 6 2.8 0 4.9-2.5 7.8-7.6v.3c0 1.7 5.4 7.3 7.8 7.3 2.8 0 3.7-.9 8.2-8.4-3 7.6-4.9 12.4-6.5 16.2-3.6-1.6-7.5-3-12.9-3-12.6 0-15.1 7.6-15.1 12.3 0 5.1 4.7 11.1 13.1 11.1 10.8 0 16.5-6.1 19-11.6.2-.4.5-1.1.9-2 5.2 2.5 10.1 4.9 15.1 4.9 6 0 9.2-2.8 9.2-6.7-.2-4.8-3.4-6.3-6.5-6.3zm-86.7-14c-1 0-1.3-1.5-1.3-3 0-4.8 6.5-19.5 10.8-19.4 2.1.1 3.3 1.7 3.5 2.1-1.1 2.6-2.4 5.6-3.6 8.6-2.4 4.5-6.7 11.7-9.4 11.7zm30.4-33.8c0-1.2 1.1-1.9 1.8-1.9 1.7 0 .4 2.2 0 3.1 0 .1-.2.4-.4.9-1.2-.7-1.4-1.5-1.4-2.1zm30.8 55.2c-1.8 4.7-7.3 7.9-12.2 8-6.9 0-8.8-3.8-8.8-5.5 0-2.8 1.7-7.8 10.7-7.8 4 0 7.8 1.1 11.5 2.7-.5.8-.9 1.7-1.2 2.6zM235.2 20.6c-.4-1-1.5-1.7-3.2-2.1-1.4-.3-2.5 0-3.1.8-.6.7-.8 1.8-.7 3.1.1 1.2.3 2.5.8 3.6.4 1.2.9 1.9 1.4 2.2.5-.2 1.2-.7 2.1-1.5 1-1 1.7-1.9 2.2-3 .7-1.2.8-2.2.5-3.1z" fill="#343434"></path>
  <path d="M242.8 12.2c-1.1-3.1-4.1-5.1-9-6.1-4.2-.9-7.1-.2-9 2.2-1.6 2-2.2 5-1.9 9 .3 3.4 1 6.9 2.5 10.4 1.3 3.4 2.5 5.5 3.9 6.4 1.4-.4 3.5-1.9 5.9-4.4 2.7-2.7 4.8-5.6 6.3-8.5 1.7-3.5 2.2-6.5 1.3-9zm-10.3 14.5c-.9.8-1.6 1.4-2.1 1.5-.4-.3-.9-1-1.4-2.2-.5-1.2-.8-2.5-.8-3.6-.1-1.4.1-2.5.7-3.1.6-.8 1.7-1.1 3.1-.8 1.7.4 2.8 1.1 3.2 2.1.3.8.2 1.9-.5 3.1-.5 1.1-1.2 2-2.2 3z" fill="#A5BB27"></path>
  <path d="M255.1 28.6c-1-1.1-2-1.5-3.1-1.3-.8.3-1.7.9-2.5 2.1-.6 1-1.1 2.1-1.4 3.5-.3 1.2-.4 2-.3 2.6.5.2 1.4.2 2.6 0 1.4-.2 2.5-.6 3.6-1.1 1.3-.6 2-1.4 2.3-2.3.4-1.1 0-2.2-1.2-3.5z" fill="#343434"></path>
  <path d="M263.9 19.6c-2.8-3.2-5.7-4.4-8.6-3.6-2.5.7-4.7 2.7-6.9 6.1-1.9 2.9-3.2 6.2-4.2 9.8-.9 3.5-1.2 5.9-.7 7.5 1.4.5 3.9.5 7.4 0 3.9-.6 7.3-1.7 10.2-3.1 3.6-1.8 5.8-4 6.5-6.5.9-3.1-.3-6.5-3.7-10.2zm-9.8 14.8c-1 .5-2.2.9-3.6 1.1-1.3.2-2.1.2-2.6 0-.2-.6-.1-1.4.3-2.6.3-1.4.8-2.5 1.4-3.5.8-1.2 1.6-1.9 2.5-2.1 1-.3 2 .2 3.1 1.3 1.2 1.3 1.6 2.5 1.3 3.6-.4.9-1.1 1.6-2.4 2.2z" fill="#A5BB27"></path>
  <path d="M263.3 51.6c-.2-1.5-.8-2.5-1.8-2.8-.8-.3-1.9-.2-3.2.3-1.1.4-2.2 1.1-3.2 1.9-.9.8-1.5 1.4-1.7 2 .3.4 1 .9 2.1 1.4 1.2.6 2.4 1 3.6 1.2 1.4.2 2.5 0 3.1-.6.9-.5 1.3-1.7 1.1-3.4z" fill="#343434"></path>
  <path d="M275.6 49.3c-.4-4.2-2.1-6.9-5-7.9-2.4-.8-5.4-.5-9.2 1-3.1 1.4-6.2 3.2-9.1 5.6-2.8 2.3-4.4 4.2-4.8 5.7.8 1.3 2.9 2.7 6 4.2 3.5 1.8 6.9 2.9 10.1 3.3 4 .6 6.9.1 9-1.6 2.6-1.9 3.5-5.3 3-10.3zm-13.4 5.9c-.7.6-1.8.8-3.1.6-1.2-.2-2.4-.6-3.6-1.2-1.1-.5-1.8-1-2.1-1.4.2-.6.8-1.3 1.7-2 1-.8 2.1-1.5 3.2-1.9 1.4-.5 2.4-.6 3.2-.3 1 .3 1.6 1.3 1.8 2.8.2 1.5-.2 2.7-1.1 3.4z" fill="#A5BB27"></path>
</svg>
